<?xml version="1.0" encoding="UTF-8"?>
<!DOCTYPE svg PUBLIC "-//W3C//DTD SVG 1.1//EN" "http://www.w3.org/Graphics/SVG/1.1/DTD/svg11.dtd">
<!-- Creator: CorelDRAW -->
<svg xmlns="http://www.w3.org/2000/svg" xml:space="preserve" width="49.4554mm" height="23.9485mm" version="1.1" style="shape-rendering:geometricPrecision; text-rendering:geometricPrecision; image-rendering:optimizeQuality; fill-rule:evenodd; clip-rule:evenodd"
viewBox="0 0 4381.96 2121.94"
 xmlns:xlink="http://www.w3.org/1999/xlink"
 xmlns:xodm="http://www.corel.com/coreldraw/odm/2003">
 <defs>
  <style type="text/css">
   <![CDATA[
    .fil0 {fill:black}
   ]]>
  </style>
 </defs>
 <g id="Capa_x0020_1">
  <metadata id="CorelCorpID_0Corel-Layer"/>
  <g id="_2620501363296">
   <path class="fil0" d="M952.29 368.91l13.08 -36.41 9.38 3 -4.55 -29.58 -19.36 -2.36c7.71,31 10.62,22.38 -20.49,11.71l-13.86 18.87 -13.23 20.62 -19.34 16.53c-31.75,33.15 -47.08,45.2 -56.96,78.21l98.75 -189.15c2.02,-3.01 4.73,-7.12 6.78,-10.11 79.64,-115.9 235.64,-278.94 386.68,-212.4 63.56,20.72 66.61,19.96 84,83.28l20.68 0.56 -5.77 21.9c53.94,84.01 76.25,207.09 90.38,307.29 18.43,130.76 1.28,263.32 8.95,395.11 9.24,-13.52 24.42,13.05 27.36,-107.61 3.78,-154.92 -17.71,-478.56 -97.46,-594.14 -11.7,-16.95 -18.53,-18.08 -23.46,-22.56l-1.42 -20.19c-2.89,-2.84 -6.56,-7.11 -8.23,-8.94 -1.67,-1.83 -6.03,-6.74 -8.1,-8.96l-74.63 -62.47c-185.76,-79.57 -314.83,81.22 -423.53,221.25l-21.05 29.24c-2.02,3.09 -4.54,7.35 -6.51,10.51 -1.99,3.19 -4.39,7.53 -6.34,10.76l-48.64 85.33c-1.8,3.32 -3.9,7.74 -5.71,11.07l-64.42 138c-158.03,364.23 -288.21,1120.52 -62.82,1440.25 159.44,226.18 362.33,65.67 485.54,-99.19l117.17 -184.92c1.77,-3.37 3.85,-7.75 5.64,-11.14l140.49 -353.94c-41.97,29.82 -10.89,-20.9 -43,51.94l-244.21 489.62c-2.21,2.84 -5.44,6.58 -7.66,9.45 -2.24,2.9 -5.48,6.64 -7.7,9.58 -46.03,60.76 -79.81,108.25 -187.29,102.93 -213.7,-57.37 -131.45,-699.81 -126.85,-818.45 -43.2,55.86 -27.46,66.84 -35.26,133.36 -22.57,192.48 -22.19,502.64 71.06,637.46l40.12 43.78c31.9,22.63 44.29,5.87 87.49,54.67 -81.58,4.7 -161.88,75.75 -278.66,-82.39l-37.9 -73.8c2.78,-2.14 6.93,-5.11 8.48,-6.18l40.71 -27.3c-5.33,-92.95 -14.03,-219.31 -47.16,-290.44 -3.45,-0.73 -8.59,-2.04 -10.41,-1.81 -1.74,0.2 -7.99,-0.71 -10.09,-0.22l-20.07 7.73c-31.04,14.95 5.96,-2.84 -28.43,23.6 -25.16,-301.42 20.62,-461.33 19.19,-501.71 7.21,106.36 -19.24,278.64 42.48,357.62 59.71,-83.52 93.91,-424.75 128.33,-556.29 46.22,-176.63 113.09,-336.84 157.84,-512.58z"/>
   <path class="fil0" d="M3425.74 2084.43l-8.98 11.7c106.73,33.39 194.65,51.73 282.11,-57.19 243.38,-303.12 98.67,-1113.73 -78.83,-1484.99 -57.22,-119.69 -33.65,9.83 -56.96,-87.43 -24.38,-101.76 -205.06,-366.57 -392.28,-407.39l72.34 52.53c129.64,79.65 271.08,262.5 310.98,376.54 -21.21,-28.08 -43.45,-51.61 -70.25,-82.86 -39.18,-45.68 -16.63,-43.26 -77.26,-54.01 29.63,171.81 130.12,368.02 178.79,552.93 26.91,102.21 109.63,531.27 149.1,581.45 34.97,-77.82 25.64,-190.42 31.25,-287.36l21.05 59.21c2.06,8.34 6.73,37.43 7.97,46.89l-0.92 326.55c-14.97,-53.22 -12.84,-40.62 -75.52,-38.97l-30.52 307.24 50.93 10.71 -75.77 126.31c-1.31,1.3 -23.36,22.4 -25.72,24.38 -76.47,64.11 -136.03,35.38 -211.5,23.75zm-44.99 -48.18l-33.5 8.26 25.87 8.33c33.67,-5.14 24.73,-11.94 24.73,22.8l3.11 0c0.29,-1.71 11.47,-7.47 -20.21,-39.38zm-46.72 -3.09l9.74 -21.94 -91.92 -102.74c-2.28,-2.54 -5.74,-6.06 -8,-8.59 -2.26,-2.53 -5.69,-6.08 -7.9,-8.63 -2.23,-2.56 -5.56,-6.2 -7.74,-8.82l-148.23 -253.49c-43.59,-89.79 -76.02,-204.91 -113.53,-249.83 5.1,69.09 36.51,136.29 63.23,198.08 51.8,119.86 112.74,236.8 196.38,340.3 3.05,3.77 11.85,14.37 14.84,18.2 47.47,60.8 34.79,62.53 93.13,97.45z"/>
   <path class="fil0" d="M3146.54 1089.66c-83.81,38.54 -585.28,145.38 -740.13,176.14 -76.81,15.25 -66.19,13.04 -107.24,43.89 114.27,10.19 592.3,-111.65 766.27,-152.2 78.99,-18.41 71.06,-19.71 98.93,-0.86 -121.66,90.98 -726.13,130.23 -806.68,217.64 59.08,43.1 131.75,8.07 209.22,-10.1 71.49,-16.77 134.44,-29.36 205.54,-46.56 80.81,-19.55 345.19,-94.28 393.99,-77.27 -20.98,44.69 22.68,18.3 -73.42,42.34 -119.17,29.82 -662.44,127.64 -700.87,189.35 62.68,-12.95 128.83,-30.06 188.99,-44.97l595.47 -141.8c3.29,-0.67 9.19,-1.69 13.74,-2.72 3.69,-143.18 13.83,-291.21 -136.41,-295.19 51.42,38.24 74.22,24.44 92.58,102.31z"/>
   <path class="fil0" d="M595.94 464.35c-71.04,211.8 -191.72,438.53 -184.86,702.8l22.98 -3.97 6.78 -51 21.63 206.66c47.16,-54.87 89.84,-346.34 111.82,-440.55 34.43,-147.59 87.48,-278.63 129.65,-420.88 -3.57,-64.33 -11.21,-27.23 17.14,-27.28l2.98 -36.98 -94.94 80.52c4.68,-65.85 -6.68,-20.02 26,-39.38l-1.52 -10.36 -5.77 -22.19 20.18 4.24 39.62 -62.09c58.81,-87.35 43.41,-80.87 134.8,-132.61 58.55,-33.15 45.19,-7.96 71.42,-53.46 -111.09,17.24 -195.71,108.89 -245.21,197.76 -17.85,32.05 -7.1,1.81 -20.8,46.15 -27.82,-6.7 -17.89,-9.42 -15.91,23.01l-16.63 13 -0.11 9.48 21.95 44.45c-24.44,-34.02 -8.8,42.55 -25.01,-18.06 -2.05,-7.66 -11.52,-5.14 -16.14,-9.28z"/>
   <path class="fil0" d="M3653.25 367.55c25.18,16.18 9.92,-17.57 30.74,34.72 0.7,31.02 -6.92,26.24 22.05,15.55l-2.44 16.68 18.78 13.72 -0.97 25.62 10.23 15.04 23.66 -2.97 -16.24 37.67c-3.51,-4.16 -39.3,-49.96 -39.68,-50.28 -35.49,-29.66 -5.47,-30.34 -30.87,-2.76 16.39,106.95 103.53,299.66 139.78,429.79 24.93,89.5 76.52,398.2 113.72,450.75l16.16 -64.1 7.43 -159.98c-8.2,56.58 -3.35,3.31 33.35,19.71 -10.38,-129.25 -117.09,-521.66 -191.19,-626.39 -23.23,-32.84 -14.16,-20.33 -32.47,-34.41l-17.65 -46.92 -31.61 -21.16 -36.62 -63.27c-36.82,-55.75 -30.82,-51.95 -90.08,-95.18 -37.15,-27.11 -63.15,-47.88 -117.53,-48.79 153.03,100.53 77.27,55.3 191.44,156.96z"/>
   <path class="fil0" d="M1400.37 1265.22l-99.64 -40.6c-72.69,-14.83 -53.08,6 -74.92,-49.24 199.88,21.93 733.95,185.7 813.61,135.35 -38.53,-56.37 -63,-39.17 -187.3,-64.6 -117.18,-23.97 -578.61,-113.2 -624.88,-139.73 18.94,-20.28 -21.64,-33.03 87.16,-8.95 35.41,7.84 74.15,15.66 110.93,23.37 162.7,34.17 547.5,126.91 662.03,122.19 -26.55,-25.96 7.39,-10.3 -35.8,-31.22 -36.74,-17.78 -711.44,-131.47 -806.38,-172.36 2.76,-35.87 -6.87,-43.28 23.83,-66.36 58.04,-43.6 -50.09,17.12 36.3,-11.83 5.19,-1.74 10.05,-1.3 15.34,-3.13 5.56,-1.91 10.46,-3.13 15.62,-5.09l-74.99 -24.45c-1.66,5.22 -3.92,7.11 -4.76,13.08 -1.9,13.5 -70.31,104.88 -59.91,217.28 7.44,80.49 39.42,87.09 203.75,106.27z"/>
   <path class="fil0" d="M3923.41 605.54c14.87,-24.31 16.79,33.45 3.58,7.3 -0.21,-0.42 -27.56,31.92 -3.58,-7.3zm143.14 591.38l30.3 -47.85c4.2,36.15 9.45,87.95 2.03,120.33 -15.95,69.56 -16.31,-17.4 -36.34,98.21 -20.3,117.28 19.79,44.75 -39.15,213.81 83.4,-58.55 100.1,-188.66 104.21,-290.14 5.45,-134.43 -14.04,-236.43 -42.59,-362.99 -39.99,-177.29 -132.34,-423.71 -305.93,-510.82l100.98 112c2.17,2.52 27.19,36.57 27.49,37.27 16.64,39.3 -4.98,32.22 6.73,93.42 4.71,24.63 26.88,78.07 34.64,99.78 51.23,143.26 69.43,294.19 117.64,437z"/>
   <path class="fil0" d="M281.24 1069.38c20.19,14.53 -1.25,60.94 25.47,-16.33l4.96 58.05 -3.3 54.61c29.94,-34.48 8.33,33.51 36.22,-66.34 5.64,-20.22 10.3,-60.78 14.8,-84.2 17.51,-91.14 69.9,-309.5 108.87,-392.3 20.49,-43.54 -0.18,-7.06 15.57,-23.35 -21.23,-26.11 -64.9,-15.48 35.44,-142.69 31.38,-39.79 50.58,-35.92 76.27,-80.18 -50.41,15.64 -107.34,82.07 -140.23,135.37 -86.97,140.91 -193.28,403.86 -174.06,557.36z"/>
   <path class="fil0" d="M4080.14 746.52c24.84,15.72 1.45,19.41 50.85,18.08l162.21 -37.36 43.16 77.81c-54.31,36.91 -127.5,36.28 -163.25,47.2 -93.87,28.65 -25,1.64 -52.97,36.5 54.06,18.91 115.43,-13.1 179.49,-23.05 93.18,-14.48 27.46,-8.08 54.08,6.32 -48.87,47.35 -122.97,30.61 -175.26,52.38 -49.94,20.78 -27.33,2.64 -38.76,48.06 35.89,19.43 1.98,21.58 112.98,-4.48 36.83,-8.66 76.08,-20.64 100.56,-12.25 -18.19,62.86 -40.54,21.11 -151.76,59.81 -74.36,25.87 -24.97,-6.59 -42.52,34.29l208.16 -47.43c2.65,-0.6 8.1,-1.79 12.12,-2.81 6.15,-79.17 6.32,-202.68 -46.44,-268.99 -42.22,-53.06 -91.5,-8.75 -252.63,15.91z"/>
   <path class="fil0" d="M2912.42 721.35c0.14,46.58 5.22,85.99 8.33,131.74 4.04,59.25 -3.66,81.59 27.87,122.3 58.74,-31.09 41.73,-17.39 32.76,-102.34 -14.92,-141.15 -12.73,-274.81 61.57,-386.89 71.35,-7.66 60.15,-14.55 116.28,24.44 -154.02,-212.89 -247.49,-19.49 -246.81,210.75z"/>
   <path class="fil0" d="M1235.09 438.39l109.54 -11.32c130.35,269.9 18.91,396.57 76.71,486.39 40.99,-16.91 40.64,71.05 45.32,-174.72 1.61,-85.02 2.27,-307.61 -75.4,-357.4 -79.04,-50.67 -140.16,36.19 -156.17,57.05z"/>
   <path class="fil0" d="M979.3 1636.44c98.79,287.65 275.98,-50.05 329.9,-174.53 90.72,-209.45 43.13,-138.7 28.24,-162.49 -58.54,24.55 -18.6,-16.76 -52.21,58.42l-91.4 191.97c-64.47,110.06 -79.6,144.56 -214.52,86.64z"/>
   <path class="fil0" d="M1040.29 1173.37c0,152.38 -10.16,213.42 86.16,241.54 -126.77,-425.55 124.41,-638 150.37,-695.73 -118.23,16 -124.49,59.44 -173.44,172.11 -30.79,70.87 -63.09,199.7 -63.09,282.07z"/>
   <path class="fil0" d="M3423.77 1684.36c-0.67,2.16 -67.04,68.53 -137.97,7.5 -127.45,-109.64 -160.52,-263.72 -184.51,-300.97 -24.96,-38.76 -1.31,-25.37 -51.98,-31.02 -39.64,69.16 251.9,676.13 374.46,324.49z"/>
   <path class="fil0" d="M3275.84 1466.42c119.65,-47.76 86.44,-261.58 52.93,-387.77 -30.61,-115.27 -72.04,-287.1 -208.82,-299.61l39.75 48.06c49.57,63.09 91.36,161.86 113.45,240.45 55.35,196.9 24.05,235.66 2.69,398.86z"/>
   <path class="fil0" d="M3076.64 152.14l57.26 48.37c2.83,2.15 6.94,4.86 9.73,7.06 114.08,89.84 184.15,247.63 244.18,377.52l68.53 182.4c38.79,118.61 112.81,423.71 123,541.92 9.19,106.65 3.69,71.38 31.59,107.96 -1.5,-272.91 -157.59,-784.95 -282.6,-1007.77l-115.34 -170.43c-2.18,-2.47 -5.26,-6.39 -7.53,-8.76l-62.33 -53.4c-1.83,-1.58 -5.88,-5.39 -8.78,-8.13 65.6,-21 105.01,6.67 176.4,46.26 -26.8,-26.71 -47.03,-49.72 -87.75,-69.24 -3.86,-1.85 -7.81,-4 -11.98,-5.7 -93.26,-37.83 -106.09,-7.9 -134.38,11.93z"/>
   <path class="fil0" d="M91.96 981.96c-43.96,-36.64 -44.39,-14.86 -61.06,-68.97l173.69 37.87c79.35,2.62 10.03,5.5 44.23,-11.87 -11.1,-45.73 16.77,-20.67 -26.09,-44.97 -50.61,-28.68 -143.47,-2.16 -190.3,-55.48 69.86,-33.76 171.99,44.89 230.58,16.74 -35.38,-74.72 -128.54,-20.54 -213.35,-83.7l23.94 -74.59c184.4,12.88 168.18,62.05 232.26,11.51 -217.25,-16.8 -220.33,-99.56 -275.67,32.98l-27.76 113.31c-7.99,112.27 -0.74,112.01 89.52,127.17z"/>
   <path class="fil0" d="M3973.69 1235.59l-5.59 205.64c-59.3,29.91 -57.62,-39.97 -77.85,170.54 -11.41,118.67 -8.52,51.28 33.12,115.71 -3.19,2.45 -7.43,6.13 -9.16,7.84l-45.47 53.89c-2.07,2.97 -5.02,6.88 -7.02,9.88l26.09 9.24c46.66,-51.01 75.61,-145.71 90.52,-227.47 25.6,-140.35 16.11,-256.04 13.53,-396.46l-18.17 51.2z"/>
   <path class="fil0" d="M1099.41 116.31l9.88 23.88 31.26 -17.71c33.78,-25.85 6.75,-0.25 12.36,-14.25l94.92 -0.97 -127.57 127.71c-31.87,74.4 -86.36,142.19 -165.72,340.1 -11.51,28.69 -21.65,56.26 -30.93,86.24l-82.54 324.53c34.9,-43.06 25.24,-23.34 41.89,-99.73l88.4 -294.72c36.17,-94.04 88.67,-225.18 153.38,-315.35 2.31,-3.23 9.86,-12.75 13.42,-17.05 17.59,-35.67 26.05,-56.25 54.38,-83.97 10.44,-10.21 23.25,-20.59 37.25,-28.59 46.27,-26.47 10.46,-6.85 55.77,-22.63 34.71,-85.83 7.58,-20.45 -15.26,-48.51 -42.7,-27.47 -135.93,27.34 -170.89,41.03z"/>
   <path class="fil0" d="M405.16 1422.1c11.34,134.05 40.24,223.96 67.34,278.98 20.09,40.78 51.92,86.81 99.81,99.95 -13.82,-45.11 -56.22,-85.78 -89.99,-109.73 35.95,-75.74 40.57,-19.46 25.64,-137.29 -3.82,-30.17 -6.5,-114 -28.46,-129.6 -42.22,5.12 -5.43,6.88 -74.35,-2.3z"/>
   <path class="fil0" d="M2871.73 898.93c-2.98,-171.99 -31.66,-611.64 135.95,-771.29l87.98 -68.51c-93.25,23.89 -100.52,30.56 -148.6,108.1l-12.81 20.4c-88.39,151.18 -97.63,412.28 -93.68,583.94 0.2,8.92 1.97,62.68 3.11,68.06 14.57,68.54 11.22,36.17 28.06,59.31z"/>
   <path class="fil0" d="M1991 1403.04l17.88 -11.38c0.57,-17.29 -250.95,-67.9 -294.52,-77.71 -23.83,-5.36 -47.19,-8.61 -69.51,-13.49 -20,-4.36 -37.28,-10.47 -81.38,-19.89l-172.98 -33.82c4.9,4.06 11.58,3.63 14.99,11.79 11.16,26.71 530.62,126.13 585.52,144.49z"/>
   <path class="fil0" d="M3380.74 2036.24l-36.98 -25.03 -9.74 21.94 13.22 11.35 25.87 8.33 24.73 22.8c0,-34.74 8.94,-27.94 -24.73,-22.8l-25.87 -8.33 33.5 -8.26c31.68,31.92 20.5,37.67 20.21,39.38l15.8 20.5 8.98 -11.7c3.91,-3.64 8.83,-8.09 12.17,-10.42l79.42 -48.75c2.64,-2.26 6.1,-5.75 8.57,-8.19l92 -274.42c-57.83,56.09 -36.99,38.41 -53.11,117.91l-77.22 150.57c-3.03,2.08 -6.81,4.88 -10.26,6.68l-96.57 18.43z"/>
   <path class="fil0" d="M2274.89 1195.94c70.52,-7.98 441.64,-81.54 501.08,-132.36l-388.53 85.05c-13.79,2.83 -37.61,5.32 -53.91,10.34 -66.48,20.53 -31.33,8.31 -58.65,36.97z"/>
   <path class="fil0" d="M328.34 1300.74l-10.46 -31.27c-61.7,-16.72 -23.38,-17.07 -40.84,27.34l42.62 187.15c41.48,70.3 11.59,24.05 51.17,47.62l-42.49 -230.85z"/>
   <path class="fil0" d="M405.16 1422.1c68.92,9.18 32.13,7.43 74.35,2.3l-39.82 -28.57c-1.44,-0.85 -6.18,-2.87 -8.93,-4.83l3.3 -227.82 -22.98 3.97c-25.28,82.46 -19.55,201.7 -5.92,254.95z"/>
   <path class="fil0" d="M281.24 1069.38c-32.55,61.65 -29.21,162.09 -4.19,227.43 17.46,-44.41 -20.87,-44.06 40.84,-27.34l10.46 31.27 -10.46 -31.27c-28.59,-44.04 -33.55,-97.21 -6.21,-158.36l-4.96 -58.05c-26.72,77.27 -5.28,30.86 -25.47,16.33z"/>
   <path class="fil0" d="M1152.91 108.23l70.15 5.95c-80.39,48.38 -47.16,33.63 -102.8,120.79l127.57 -127.71 -94.92 0.97zm132.65 15.56c-45.31,15.78 -9.5,-3.85 -55.77,22.63 -14,8 -26.81,18.39 -37.25,28.59 -28.33,27.72 -36.79,48.3 -54.38,83.97l135.61 -126.07c2.91,-2.06 7.89,-6.04 11.78,-9.13z"/>
   <path class="fil0" d="M2115 1117.01c-19.56,-12.95 -35.35,-20.96 -71.46,-29.35 -19.05,-4.41 -25.89,-4.07 -43.16,-7.75l-428.5 -91.49c-74.01,-14.63 -125.43,-29.72 -213.39,-42.18l756.5 170.77z"/>
   <path class="fil0" d="M3938.18 1286.98l35.51 -51.39 18.17 -51.2 -12.9 -37.69c-36.7,-16.39 -41.55,36.88 -33.35,-19.71l-7.43 159.98z"/>
   <path class="fil0" d="M809.83 1166.64c12.99,-16.79 14.23,-9.86 26.63,-42.36l23.11 -148.65c-17.5,21.95 -13.15,5.54 -28.86,43.7l-20.88 147.31z"/>
   <path class="fil0" d="M2765.8 1080.24c73.85,-7.59 236.67,-34.86 296.75,-81.38l-296.75 81.38z"/>
   <path class="fil0" d="M655.1 434.29c-32.68,19.37 -21.32,-26.47 -26,39.38l94.94 -80.52c-39.83,-2.85 -20.29,-6.3 -68.94,41.14zm48.83 23.13l17.14 -27.28c-28.34,0.05 -20.71,-37.05 -17.14,27.28zm-88.77 -10.18l-19.21 17.12c4.63,4.14 14.1,1.61 16.14,9.28 16.21,60.61 0.58,-15.96 25.01,18.06l-21.95 -44.45zm0.11 -9.48l16.63 -13 -16.63 13zm32.54 -36.01l5.77 22.19 14.41 -17.95 -20.18 -4.24z"/>
   <path class="fil0" d="M3653.25 367.55l30.74 34.72c-20.81,-52.29 -5.56,-18.54 -30.74,-34.72zm52.79 50.27l31.61 21.16 -68.23 -84.43 36.62 63.27zm16.35 30.4l-18.78 -13.72 18.78 13.72zm-53.87 22.31c25.4,-27.58 -4.62,-26.9 30.87,2.76 0.38,0.32 36.17,46.12 39.68,50.28l16.24 -37.67 -23.66 2.97 -10.23 -15.04c-24.65,-20.87 -29.89,-27.3 -71.73,-46.46l18.83 43.15z"/>
   <path class="fil0" d="M1109.29 140.19l-9.88 -23.88c-50.13,27.7 -44.04,16.32 -61.62,73.55 20.83,-5.9 16.35,3.6 38.18,-10.41 37.75,-24.19 14.5,-4.16 33.32,-39.26z"/>
   <path class="fil0" d="M1319.18 37.86c32.62,24.44 58.96,43.66 84,83.28l14.91 22.46 5.77 -21.9 -20.68 -0.56c-17.38,-63.32 -20.43,-62.55 -84,-83.28zm12.3 -16.72l74.63 62.47c2.06,2.22 6.43,7.13 8.1,8.96 1.67,1.83 5.34,6.1 8.23,8.94 -41.22,-69.64 -16.13,-47.63 -90.96,-80.36z"/>
   <path class="fil0" d="M930.36 315.29l-13.86 18.87 -13.23 20.62 -19.34 16.53 19.34 -16.53 13.23 -20.62 13.86 -18.87c31.11,10.67 28.19,19.29 20.49,-11.71l19.36 2.36 -19.36 -2.36 -20.49 11.71zm21.93 53.62l22.46 -33.4 -9.38 -3 -13.08 36.41z"/>
  </g>
 </g>
</svg>
