<?xml version="1.0" encoding="UTF-8"?>
<!DOCTYPE svg PUBLIC "-//W3C//DTD SVG 1.1//EN" "http://www.w3.org/Graphics/SVG/1.1/DTD/svg11.dtd">
<!-- Creator: CorelDRAW -->
<svg xmlns="http://www.w3.org/2000/svg" xml:space="preserve" width="60.7198mm" height="28.1663mm" version="1.1" style="shape-rendering:geometricPrecision; text-rendering:geometricPrecision; image-rendering:optimizeQuality; fill-rule:evenodd; clip-rule:evenodd"
viewBox="0 0 6059.43 2810.81"
 xmlns:xlink="http://www.w3.org/1999/xlink"
 xmlns:xodm="http://www.corel.com/coreldraw/odm/2003">
 <defs>
  <style type="text/css">
   <![CDATA[
    .fil0 {fill:none}
    .fil1 {fill:white}
   ]]>
  </style>
 </defs>
 <g id="Capa_x0020_1">
  <metadata id="CorelCorpID_0Corel-Layer"/>
  <g id="_2406641888656">
   <path class="fil0" d="M3563.13 0l-0.99 6.12c2.89,-1.39 6.76,-3.52 11.12,-6.12m90.17 0c-3.24,18.35 -8.73,36.8 -11.45,45.92 -8.99,30.18 -16.46,58.83 -24.34,88.61 -15.21,57.44 -30.16,114.42 -46.86,172.89 -14.87,52.07 -93.27,323.15 -89.15,338.84 -0.16,-44.88 75.37,-414.2 89.44,-490.42 9.91,-53.6 13.3,-108.07 22.16,-155.84m0.08 0c-6.14,39.06 -140.07,590.82 -143.58,597.11 -37.37,-77.71 -46.79,-226.31 -93.83,-316 -26.82,-51.15 -4.57,-112.91 2.69,-177.06 5.39,-47.64 6.95,-75.4 6.81,-104.05m-21.16 0c-12.22,72.73 -24.29,173.94 -29.59,210.59 -24.71,-25.64 -23.74,-25.18 -33.44,-64.96 -16.26,-66.7 -30.23,-112.4 -39.71,-145.64m-442.57 0c-6.39,23.28 -13.94,53.29 -21.71,93.14 -9.25,47.5 -7.22,82.82 -36.99,121.37 -0.89,1.13 -2.17,2.61 -2.98,3.8 -58.95,84.71 -92.92,327.88 -123.33,369.19 -17.47,-74.91 -149.35,-554.44 -148.54,-583.1 1.36,91.24 64.77,362.98 90.05,479.88 8.89,41.08 29.43,122.77 30.39,159.42 -57.56,-159.32 -95.81,-358.29 -144.75,-523.39 -8.93,-30.16 -15.62,-58.06 -25.08,-87.72 -3.86,-12.12 -7.63,-22.75 -10.23,-32.58m92.85 0c3.69,2.1 7.25,3.91 10.65,5.33l-1.28 -5.33m-129.16 0c6.47,37.34 18.65,74.25 27,111.44l153.97 634.35c13.22,49.7 -7.34,77.47 -20.15,122.89 -10.64,37.77 -17.87,90.7 -36.64,113.63 -30.82,-6.82 -21.89,-15.54 -35.73,-51.81l-158.76 -424.6c-20.34,-54.66 -170.35,-466.42 -180.53,-474.9l184.24 643.36c-7.74,-14.84 -12.74,-24.76 -19.81,-40.15 -12.64,-27.46 -22.47,-48.83 -35.02,-77.56 -22.24,-50.88 -46.88,-103.09 -71.47,-154.05 -51.6,-106.95 -97.59,-203.02 -139.55,-315.05l78.65 -76.11 -111.42 -0.52 -4.87 -10.92m-73.24 0l-2.42 10.95 -106.88 12.01c23.2,21.45 61.16,57.01 91.91,68.88 -11.89,29 -24.86,71.41 -27.98,108.22 32.01,-15.19 64.92,-44.62 93.51,-61.42 12.82,9.42 14.15,13.29 27.34,22.69 9.08,6.46 19.9,10.3 22.86,13.21 10.53,10.35 -16.08,-9.49 1.23,39.89 14.24,40.62 33.09,76.72 49.63,117.1l193.56 469.99c24.48,59.16 79.79,179.24 90.6,234.69l-80.05 76.46c-17.3,-16.66 -54.52,-91.27 -70.68,-118.31 -126.86,-212.33 -238.47,-366.46 -364.41,-564.54 -23.73,-37.33 -51.84,-72.95 -75.36,-110.82l-38.56 -40.68c-11.67,-12.79 -34.53,-39.7 -39.67,-53.72l-20.3 13.63c-0.33,-0.95 -1.98,1.23 -2.91,1.9l242.97 441.93c40.55,72.79 219.97,393.67 236.17,446.68 -45.81,10.41 -67.98,30.49 -106.07,42.34 -36.24,-32.58 -133.02,-159.12 -170.51,-209.85l-168.52 -209.65c-59.93,-73.94 -114.91,-137.3 -172.17,-206.08 -29.2,-35.09 -63.07,-69.74 -91.9,-100.67 -18.6,-19.96 -28.53,-28.97 -44.84,-47.85 -35.38,-41 -19.73,-17.35 -47.74,-29.85 17.65,35.54 52.47,73.18 76.62,107.37 26.55,37.58 49.68,70.11 78.17,107.48l320.24 422.72c47.35,59.76 119.32,148.29 158.38,211.37 -9.54,14.09 -31.2,30.79 -43.29,46.12l-40.39 54.67c-54.56,-57.81 -111.27,-122.42 -171.5,-175.54 -102.2,-90.08 -433.71,-438.39 -519.52,-495.01 -12.81,28.26 103.13,130.91 144.88,179.67 89.78,104.82 255.65,260.63 341.44,361.94l89.84 89.14c30.97,31.77 49.52,59.31 83.09,91.01l-43.14 136.25 -216.06 -170.47c-161.34,-124.81 -494.8,-406.43 -670.32,-482.22 115.66,96.44 239.61,189.63 348.81,290.21 -35.79,-8.63 -179.48,-106.19 -222.52,-133.12 -76.85,-48.08 -155.43,-85.48 -222.82,-128.54 45.87,22.09 179.36,143.35 232.47,185.19 21.46,16.91 54.07,49.41 73.1,60.71 -94.09,-48.99 -211.76,-117.52 -322.44,-154.4 -3.81,6.09 -1.17,3.51 -2.79,8.3l-2.37 6.89c-0.14,-0.94 -0.81,2.6 -1.51,3.88l-30.95 -12.48c206.81,145.95 428.51,281.42 643.28,414.13 97.25,60.12 308.31,183.47 388.56,247.51l-2.41 83.26c-50.58,2.05 -540.85,-287.64 -617.73,-331.29 -55.71,-31.63 -98.46,-70.37 -168.07,-70.86 -45.52,-0.33 -127.91,-3.48 -172.13,7.83 -72.56,18.58 -126.79,1.69 -161.65,16.82 -39.14,16.98 -31.87,34.59 -84.05,33.89 -162.51,-2.17 -114.06,35.79 -179.6,51.73l7.65 22.52c-7.73,10.01 -8.5,11.95 -14.29,22.45l47.36 -3.26c52.57,-97.97 144.77,-31.24 200.34,-56.8 16.5,-7.57 18.7,-27.49 58.21,-35.07 25.63,-4.91 57.84,0.18 85.95,-0.75 46.65,-1.56 35.46,-13.07 73.04,-15.62 26.67,-1.81 156.87,-4.92 175.3,0.03 126.7,34.02 131.52,437.61 131.4,580.41 39.18,3.79 49.01,-16.12 70.34,-15.93 23.5,0.21 43.2,26.99 60.99,35.01 29.53,13.3 151.02,7.12 191.66,7.23 130.42,0.36 254.24,11.39 382.73,15.35 125.86,3.9 701.24,33.62 773.73,4.64 -68.67,-31.2 -385.5,-28.29 -481.26,-28.53 0.22,-56.09 26.97,-76.16 9.4,-139.58 -15.68,-56.54 -26.71,-63.86 -80.7,-76.13 -49.3,-11.23 -79.6,6.09 -113.63,31.21 -44.83,33.08 -43.28,46.67 -78.05,81.37l29.3 -63.94c-9.69,15.34 -26.06,21.27 -41.71,44.6 -10.5,15.66 -28.9,37.4 -31.37,54.7l26.9 -94.76c-34.08,39.28 -66.34,103.47 -80.72,163.17 4.45,-45.59 15.98,-71.1 28.51,-108.8 -29.7,40.72 -31.29,54.65 -44.7,110.75l-60.85 2.2c15.42,-163.1 106.42,-218.88 110.16,-234.95 -20.96,-174.52 -4.66,-295.8 84.42,-417.04 78.01,-106.2 170.65,-158.72 350.67,-165.11 19.76,-15.96 25.1,-30.92 46.02,-48.5 53.4,-44.83 116.05,-74.2 190.09,-89.03 30.83,-87.96 122,-436.15 148,-541.39 42.62,-172.37 65.39,-252.86 206.29,-311.22 28.81,-11.95 103.5,-45.87 131.15,-43.93 67.73,4.78 204.62,75.86 237.27,106.62 79.74,75.11 135.91,380.63 176.73,519.85l74.06 250.98c22.32,45.58 55.99,13.3 143.27,69.14 47.52,30.39 62.02,45.52 99.94,89.43 89.62,1.39 131.64,0.57 206.87,41.31 56.84,30.76 107.33,73.5 138.66,120.27 94.82,141.47 98,234.85 84.76,425.21 57.44,59.12 95.85,106.07 107.44,226.38l-50.75 4.16c-12.43,-44.28 -30.74,-92.96 -56.8,-117.76l15.79 40.84c-2,-0.95 -3.58,-4.81 -4.07,-3.74 -2.26,5.09 -27.83,-58.36 -56.81,-76.77l28.79 75.66c-3.88,-0.22 -5.81,-4.04 -6.41,-2.88 -0.58,1.15 -3.02,-2.92 -3.8,-3.84l-25.17 -36.31c-16.93,-23.7 -16.88,-28.37 -43.18,-38.87l14.89 30.2c-48.51,-66.17 -87.93,-99.99 -167.8,-91.45 -20.04,31.36 -21.24,57.47 -27.04,99.15l-0.98 -54.27c-17.88,15.19 -25.96,27.62 -24.26,62.72 0.9,18.33 5.21,22.26 5.16,29.79 -0.16,21.18 1.9,-2.47 -10.56,2.95 7.57,35.17 16.43,37.25 27.32,65.63 -63.13,30.33 -376.35,0.83 -569.25,43.84 240.29,22.77 538.99,1.93 783.59,-5.84 130.82,-4.15 249.97,-17.17 383.25,-17.81 50.2,-0.23 153.08,5.21 197.22,-2.22 39.88,-6.7 34.09,-29.16 63.19,-35.99 23.33,-5.46 56.75,12 85.59,16.83 0.28,-114.71 4.97,-241.31 21.88,-353.61 14.23,-94.43 32.87,-233.32 136.34,-234.24 47.9,-0.43 132.94,-1.44 172.15,13.07 54,19.96 112.57,-9.11 164.92,20.49 38.73,21.9 15.23,27.85 66.99,26.49 208.85,-5.61 105.55,40.59 179.37,53.75 11.32,2.02 40.07,1.51 53.39,2.09 -8.47,-23.43 -2.96,-45.77 -11.92,-63.49 0.7,22.36 4.83,8.67 -7.98,20.34 -61.05,-8.84 -36.68,-57.86 -186.09,-55.65 -67.78,0.99 -41.91,-6.16 -86.38,-30.76 -29.27,-16.19 -75.74,-5.33 -112.68,-5.43 -38.35,-0.08 -54.49,-15.92 -105.65,-17.46 -140.44,-4.25 -162.68,-11.31 -285.08,62.96 -74.91,45.46 -549.18,325.75 -617.15,332.3l3.01 -84.46c28.84,-25.7 100.43,-66.43 136.77,-88.52l406.32 -257.35c137.99,-90.36 273.79,-171.21 407.01,-263.41 23.05,-15.97 41.99,-29.65 66.06,-46.78 12.24,-8.7 44.05,-37.74 57.16,-38.64 -75.34,5.76 -253.76,96.63 -330.03,137.98 -31.14,16.89 -73.35,35.9 -98.89,52.4 9.81,-3.25 270.9,-213.45 292.71,-233.69 -76.33,11.9 -309.18,200.37 -402.91,237.28 51.26,-70.32 299.17,-234.18 331.1,-284.5 -86.88,34.9 -260.61,172.29 -344.42,231.66 -21.06,14.93 -33.85,27.76 -55.63,43.86 -72.97,53.99 -420.37,345.62 -476.62,371.11l-41.74 -126.28c17.08,-19.02 31.6,-32.39 46.01,-47.14l127.79 -137.66c42.9,-54.65 121,-124.59 170.11,-181.4l258.29 -278.93c26.9,-27.35 72.04,-56.7 63.67,-92.68 -25.54,16.77 -68.99,59.97 -93.76,82.46l-601.73 602.59 -83.63 -99.16c16.83,-36.32 53.69,-79.67 78.98,-114.83l336.11 -446.68c25.92,-37.53 55.32,-71 82.1,-110.33 29.13,-42.76 52.89,-76.13 83.49,-115.32 15.97,-20.49 75.09,-89.75 64.16,-109.25 -16.96,12.78 -72.4,77.47 -92.39,100.65l-358.98 423.89c-46.85,58.28 -230.38,272.71 -253.48,321.65 -31.3,-5.34 -65.72,-30.46 -109.53,-40.14 8.34,-33.7 336.58,-638.39 374.86,-707.52 28.02,-50.6 113.28,-189.43 124.49,-235.24 -4.95,3.13 -12.68,10.28 -13.9,10.96 -36.92,20.43 -26.41,-4.25 -77.59,71.49l-466.9 714.07c-24.07,37.32 -45.91,87.62 -72.56,121.79l-79.88 -74.97c25.46,-81.2 59.33,-155.99 90.62,-234.49l231.47 -564.75 91.16 -172.84 -87.75 30.08c-50.17,103.88 -103.92,221.57 -153.76,330.52 -18.32,40.08 -146.01,311.53 -149.92,322.84l192.87 -642.24c-13.74,15.35 -19.54,36.76 -26.89,56.67 -6.77,18.36 -13.12,33.88 -19.9,53.4l-124.38 333.2c-28.26,75.97 -57.1,145.05 -84.56,220.74 -12.88,35.52 -64.52,199.72 -91.36,213.65 -21.17,-27.4 -29.4,-81.15 -40.58,-118.37 -17.42,-58.17 -28.6,-58.59 -11.62,-125.76 20.75,-81.99 42.33,-164.5 59.49,-245.82 17.19,-81.46 39.35,-165.62 57.81,-247.29 9.68,-42.79 17.85,-80.51 27.96,-123.45 8.82,-37.52 23.67,-77.7 29.86,-115.63"/>
   <path class="fil1 hover:textyelo" d="M2393.88 1182.14c33.27,11.5 31,-2.35 42.46,23.23 -31.81,3.14 -83.64,16.81 -109.01,14.76 -51.34,-4.13 -62.56,-9.88 -117.03,6.31 -75.36,22.4 -129.88,56.06 -165.83,99.47 -69.3,83.69 -142.23,270.56 -72.73,405.23 9.97,-107.11 25.52,-176.53 72.88,-272.41 32.51,-65.77 103.08,-150.67 166.26,-176.08 -117.62,87.07 -199.83,210.44 -174.9,370.63l28.01 -59.36c3.33,0.73 4.94,-0.33 5.12,0.47l40.52 -44.5c17.9,18.1 4.84,-1.04 10.84,21.59 0.83,3.12 -1.49,8.9 -0.78,11 53.27,-56.36 154.82,-154.23 235.04,-175.98 -14.93,24.95 -32.19,30.99 -50.24,46.76 -19.65,17.18 -28.86,31.5 -48.13,51.36 -35.02,36.07 -69.99,62.8 -96.12,100.88 101.69,-54.9 282.8,-181 416.11,-189.64 -75.96,38.04 -211.15,162.14 -227.74,219.51 48.93,-9.34 78.55,-20.83 137.2,-16.19 -17.78,-8.46 -137.73,77.54 -157.38,90.44 34.75,1.38 65.68,7.95 109.68,7.77 42.64,-0.17 84.91,-2.12 127.46,0.11l-51.76 17.48c-20.7,4.9 -34.77,8.5 -54.47,12.16 -46.1,8.57 -70.4,9.37 -117.87,14.91 41.24,13.34 253.61,77.49 278.25,72.04l-190.83 11.07c26.3,-2.33 138.37,96.76 300.94,99.79 113.43,2.12 264.08,-40.83 291.31,-124.94l-130.59 4.37c97.36,-35.96 156.92,-30.95 134.26,-222.94 -15.94,-134.98 -71.79,-146.66 -168.91,-206.05 51.85,-0.6 90.17,20.68 126.08,37.23 -52.52,-86.2 -186.17,-69.54 -243.3,-68.32 13.93,-3.94 33.57,-15.19 53.26,-21 11.65,-3.43 21.46,-5.35 31.17,-7.62l36.39 -14.36c-141.01,-34.15 -143.65,-22.7 -283.76,-6.61l59.92 -29.28c-60.38,-5.22 -134.03,13.31 -189.58,20.52 99.07,-42.74 62.33,-20.22 122.81,-42.04 -75.74,-25.09 -104.49,-27 -184.38,-17.32 36.9,-39.87 194.14,-52.99 262.34,-55.31 -29.51,-43.04 -53.91,-78.72 -80.86,-115.03 -68.64,9.96 -153.56,69.09 -172.09,105.85z"/>
   <path class="fil1" d="M3438.22 1191.04c54.95,3.73 97.39,3.49 152.24,11.66 21.36,3.18 46.49,7.25 65.38,13.86 19.72,6.91 43.3,24.14 52.04,27.4 -35.76,1.26 -54.98,-10.1 -101.37,-1.5 -26.92,4.99 -65.98,19.6 -90.37,21.8 43.66,10.27 87.53,14.85 121.54,36.01l-151.91 -7.12c12.11,7.67 3.25,2.54 14.42,8.58 8.88,4.8 16.08,7.68 23.87,11.88 -46.85,-2.07 -92.04,-14.75 -143.85,-15.81 -74.37,-1.51 -92.16,13.36 -151.13,21.94 11.36,9.43 1.77,3.82 18.07,9.95l48.16 10.5c23.22,6.56 40,14.11 57.34,25.51 -96.25,-7.37 -210.48,-1.11 -245.22,75.36 48.19,-24.01 60.57,-49.55 138.21,-44.21 -94.64,22.31 -161.13,100.18 -176.5,194.97 -25.51,157.26 9.79,199.69 137.37,230.57l-131.61 -4.51c-11.94,28.9 70.37,76.36 96.83,88.99 50.33,23.99 107.03,36.82 175.21,37.72 103.31,1.35 260.81,-49.04 309.93,-102.77 -48.98,1.48 -119.17,9.06 -159.11,-9.11l190.56 -43.61c20.39,-9.57 13.04,-5.57 21.43,-23.19 -29.67,-13.58 -113.89,-20.4 -154.4,-35.67l-25.06 -13c84.7,1.25 148.41,5.76 230.01,-9.04l-126.37 -73.35 83.12 10.54 26.33 -8.7c-32.79,-71.1 -158.42,-177.27 -229.59,-221.29 129.97,6.91 312.37,126.81 413.7,182.41l-190 -192.97c68.87,16.39 217.8,134.51 238.74,183.16 -21.05,-33.55 4.12,-21.36 14.24,-24.84 29.27,18.12 51.47,47.38 64.92,83.21 14.5,-68.88 -6.05,-144.24 -36.92,-200.45 -50.86,-92.62 -75.54,-95.42 -115.36,-144.91 51.41,25.82 75.49,62.69 107.83,106.29 50.17,67.64 54.1,110.35 68.18,131.87 8.04,12.31 1.17,4.41 10.87,12.81l-10.38 -99.9c-9.62,-26.71 -23.79,-51.33 -37.34,-71.96 -2.16,11.97 19.5,32.22 36.08,64.62 13.65,26.65 22.37,50.6 29.97,82.52 20.73,87.23 4.3,127.36 8.5,204.59 91.38,-143.27 -33.82,-551.58 -355.73,-513.44 -41.79,4.95 -21.05,-0.57 -51.14,-8.27 -30.59,-7.83 -49.27,2.37 -67.39,-8.09 18.26,-14.34 36.15,-14.48 52.99,-24.44 -27.43,-36.4 -98.51,-92.84 -170.69,-101 -12.69,16.58 -73.37,112.72 -86.61,114.44z"/>
   <path class="fil1" d="M627.05 2642.4c11.59,7.15 20.9,10.9 33.17,19.11l-19.9 25.37c38.14,3.44 134.95,3.15 163.19,10.64 50.19,13.28 71.08,27.85 135.34,37.07 57.54,8.26 419.9,9.68 500.32,2.28 78.95,-7.26 63.2,-45.22 137.46,-29.83 68.19,14.14 91.71,-6.49 141.54,30.9 44.23,33.18 88.58,29.63 155.65,22.93 -42.71,-27.79 -96.6,-27.83 -141.67,-70.03 -49.3,-46.18 -42.23,-11.4 -182.25,-31.64 -99.09,-14.32 20.49,28.78 -173.21,28.69 -70.82,-0.04 -142.57,-1.41 -213.21,-0.58 65.23,-116.43 21.44,-73.56 167.24,-83.19 40.85,-2.7 58.17,-18.18 90.67,-28.28 51.14,-15.91 164.24,-9.36 227.38,-9.23 77.2,0.14 144.73,11.18 225.46,12.4 171.81,2.62 579.22,19.14 706.05,-4.9 210.34,-39.86 239.69,-29.27 454.89,-28.93 157.02,0.25 313.08,-7.62 454.4,22.52 126.33,26.94 526.35,13.56 699.9,11.15 95.66,-1.33 384.05,-30.31 459.89,-4.49 46.96,15.99 31.37,28.95 90.36,29.4 42.37,0.33 83.96,-0.57 126.42,1.34 10.5,11.68 42.81,69.27 49.28,83.78 -71.52,-3.3 -143.53,-1.39 -215.12,-1.09 -25.36,0.1 -80.09,2.27 -101.97,-4.37 -38.97,-11.82 -17.71,-34.78 -75.38,-27.78 -30,3.64 -62.48,11.7 -94.74,12.2 -52.67,0.84 -42.19,-14.28 -77.14,15.64 -28.97,24.8 -61.47,43.8 -100.2,59.34 -5.81,2.34 -14.02,5.15 -19.13,7.34l-23.58 12.38c198.13,7.41 108.11,-44.53 213.38,-48.91 121.19,-5.03 77.41,-33.29 148.23,5.45 49.09,26.84 192.82,20.31 249.95,20.13 123.5,-0.41 209.99,10.92 330.89,-6.25 54.23,-7.69 113.27,-34.09 140.26,-36.98 50.82,-5.45 124.33,4.43 166.39,-14.56 0.78,-19.54 -1.93,-15.67 12.33,-33.63l6.89 -6.76c-39.85,2.06 -87.19,-0.69 -121.31,5.63 -36.13,6.7 -84.55,-5.27 -111.81,13.78 -47.57,33.24 -140.57,42.28 -204.87,43.18 -145.06,2.03 -151.83,-204.33 -166.19,-335.17 -58.27,8.78 -54.78,46.25 -108.95,70.7 -28.4,12.82 -38.77,5.36 -67.75,25.18 -12.2,8.34 -40.57,21.08 -48.54,35.37 87.04,9.37 127.26,-23.9 193.82,-54.79l12.18 82.68c-44.43,-2.75 -81.59,4.7 -126.47,2.46 -42.72,-2.14 -76.24,-13.8 -118.88,-14.25 -80.8,-0.85 -180.91,7.7 -258.82,-0.76 33,-18.11 18.57,-1.86 49.51,-29.5 19.95,-17.83 21.71,-16.75 45.47,-29.69 -13.02,-22.91 -21.79,-33.27 -36.04,-51.64 -13.39,19.43 -12.65,31.77 -35.96,47.44l8.18 -55.59c-46.48,37.24 -98.33,83.17 -164.65,113.11l37.1 8.46c-102.62,10.8 -554.26,11.53 -680.08,10.54 -103.86,-0.82 -195.72,-33.84 -311.69,-35.33 -247.74,-3.19 -418.2,-7.29 -658.31,27.95 -81.49,11.97 -567.26,6.35 -675.34,2.54 -66.32,-2.33 -197.04,-92.99 -216.53,-118.32l-0.65 45.08c-5.97,-5.49 -4.69,-3.42 -10.77,-11.54l-16.33 -37.21c-13.13,15.65 -35.16,38.97 -39.31,61.15 28.72,20.74 52.89,35.1 84.72,52.49 -69.39,9.29 -183.93,1.45 -258.92,2.2 -49.7,0.5 -70.35,10.72 -112.26,14.31 -38.52,3.3 -88.66,-0.62 -128.41,-0.62l7.11 -83.72c34.21,15.89 52.89,24.66 91.32,38.47 56.46,20.31 43.81,17.55 111.71,16.06 -28.41,-37.56 -113.54,-55.46 -125.54,-61.92 -52.18,-28.12 -41.91,-62.3 -108.97,-73.3 -5.1,111.22 -17.19,246.43 -81.87,306.17 -42.65,39.4 -94.03,33.48 -157.74,22.51 -63.85,-10.99 -107.27,-3.31 -137.06,-48.28 -45.48,3.15 -57.99,7.69 -105.75,-0.69 -35.76,-6.28 -58.08,-1.16 -94.77,-3.77z"/>
   <path class="fil1" d="M2733.03 648.1c8.24,-40.14 48.45,-105.64 69.21,-124.98l-14.41 73.57c26.38,-26.8 110.46,-173.12 208.36,-195.69l-90.3 81.52c-29.47,27.2 -50.45,58.03 -75.25,97.04l-122.21 207.75c-13.39,29.29 -86.72,228.97 -78.58,258.82 1.79,6.58 66.77,85.68 74.78,95.26 26.59,31.79 49.45,57.52 88.17,84.83 -38.43,-29.81 -84.79,-139.56 -107.14,-194l-17.14 39.43c-14.17,-82.66 18.59,-115.69 53.91,-182.24 46.97,-88.49 126.01,-246.49 187.26,-316.93 133.24,-153.22 134.4,-146.39 264.47,-6.91 64.2,68.83 142.56,227.1 187.05,316.87 25.76,51.96 81.39,130.54 55.19,189.94l-7.83 -11.62c-0.75,-1.58 -2.27,-3.87 -3.06,-5.77l-5.45 -27.52c-23.73,73.86 -61.69,160.47 -110.41,205.44 43.8,-22.01 129.34,-126.4 161.28,-172.69 22.68,-32.87 -3.07,-80.66 -14.81,-121.33 -11.66,-40.36 -29.8,-88.17 -46.15,-125.78 -37.39,-85.98 -168.54,-295.66 -230.88,-358.41 -17.44,-17.56 -32,-22.69 -46.16,-42.56 75.93,21.13 149.34,129.22 186.23,193.71l-15.16 -92.11c11.82,20.82 21.6,32.99 35.23,59.15 11.38,21.8 22.93,50.37 34.81,67.57 -7.22,-63.24 -57.59,-248.31 -81.69,-305.96 -41.29,-98.8 -201.09,-148.7 -236.63,-147.21 -48.05,2 -189.99,59.22 -226.69,158.08 -15.19,40.91 -78.12,271.3 -75.96,302.72z"/>
   <path class="fil1" d="M807.43 2212.01c8.41,-66.07 11.48,-139.88 18.09,-207.24 7.18,-73.03 24.64,-136.48 31.43,-199.04 -0.28,0.09 -10.97,13.61 10.79,7.62l14.97 -60.87c3.56,66.56 -4.4,172.17 13.63,226.71 4.74,-74.85 28.91,-280.83 55.79,-334.06 0.51,154.3 -9.1,719.99 66.59,830.96 -4.64,-273.11 -28.66,-708.7 47.14,-967.54 5.63,-19.23 23.6,-49.26 15.01,-63.77 -11.17,-18.88 -52.99,-17.48 -69.48,-5.03 -27.01,20.42 -38.35,87.79 -58.85,116.52 2.96,-44.63 25.62,-79.21 34.14,-123.57 -28.84,14.49 -75.79,119.76 -84.79,152.21 3.66,-58.84 35.69,-101.84 51.31,-150.72 -112.34,5.99 -99.06,2.37 -125.98,114.1 -16.17,67.11 -28.02,140.82 -34.43,211.3 -6.86,75.48 -8.34,161.53 -5.68,238.8 1.19,34.57 22.49,208.05 20.3,213.61z"/>
   <path class="fil1" d="M5023.15 2605.1c2.5,-24.48 25.48,-58.01 35.52,-87.58 41.07,-120.91 72.7,-482.29 75.41,-612.11 2,-95.33 -7.47,-176.27 -9.27,-266.97 27.79,51.35 56.91,274.47 63.9,350.98l10.03 -213.46c15.07,22.46 17.1,40.27 21.62,69.96l6.26 -38.55c31.18,194.3 31.6,183.94 46.29,390.3 36.13,-141.95 17.45,-664.82 -68.44,-757.01l-85.87 -1.93c15.83,40.77 48.22,82.84 51.37,141.7 -20.23,-43.51 -49.05,-129.81 -86.19,-145.46 11.08,47.4 37.59,76.85 44.88,137.52 -15.91,-27.21 -45.09,-112.15 -60.31,-128.5 -18.81,-20.23 -67.62,-15.56 -72.5,3.99 -1.77,7.08 16.31,62.13 19.88,75.91 25.86,99.6 40.02,236.86 45.49,343.85 9.85,192.99 31.39,552.79 -38.06,737.36z"/>
   <path class="fil1" d="M1754.82 1851.5l30.18 -65.68 -298.19 -196.44c-77.92,-46.96 -240.09,-158.04 -308.37,-188.99 9.7,30.42 23.55,56.48 32.34,94.11 14.64,62.66 -1.79,68.45 36.06,89.69 55.51,31.17 110.88,63.55 166.84,91.72 59.2,29.8 297.42,168.53 341.14,175.6z"/>
   <path class="fil1" d="M4297.22 1785.82c5.41,10.23 8.44,14.88 15.35,29.15l16.23 32.44c49.37,-17.77 121,-61.3 167.44,-86.38 59.05,-31.88 110.2,-59.66 168.02,-90.57 56.95,-30.44 111.99,-59.39 167.9,-90.99 35.91,-20.29 20.24,-22.2 37.57,-89.39 9.86,-38.21 25.58,-65.71 33.58,-92.77 -51.11,30.22 -570.87,350.31 -606.09,388.52z"/>
   <path class="fil1" d="M610.14 1978.21c0.23,80.12 5.45,150.66 20.87,225.96 5.43,-89.92 16.39,-219.32 34.01,-306.92 7.46,-37.16 19.06,-58.58 23.57,-99.15l7.74 32.4c4.52,-27.63 17.68,-59.69 27.17,-81.51l8.38 156.59 20.96 -107.21c24.67,-144.49 41.85,-210.58 78.17,-350.9 -93.98,-9.44 -114.67,-1.76 -138.24,45.76 -50.26,101.31 -82.94,373.74 -82.63,485z"/>
   <path class="fil1" d="M5497.03 2205.98c37.12,-90.59 24.75,-309.13 35.92,-418.89 6.92,49.16 63.66,146.65 58.3,194.37 15.06,-142.8 -1.41,-385.81 -70.18,-491.92l-106.48 -1.25 54.23 344.22c13.14,123.88 23.99,246.43 28.22,373.48z"/>
   <path class="fil1" d="M1727.9 1944.63l20.65 -65.81c-24.81,-20.61 -211.2,-111.98 -255.68,-136.38l-263.34 -135.93c15.39,179.95 -19.79,105.07 203.92,215.35 71.35,35.18 220.18,105.42 294.46,122.77z"/>
   <path class="fil1" d="M4335.1 1868.74l15.37 69.02c53.49,-8.2 479.5,-195.67 485.55,-210.17l13 -123.61c-55.4,14.66 -452.7,245.58 -513.93,264.77z"/>
   <path class="fil1" d="M5699.33 2230.43c4.88,-66.3 13.4,-132.38 14.01,-199.15 0.63,-68.45 -4.98,-137.1 -0.98,-205.65 -0.87,1.4 -5.93,-8.16 0.66,4.9 6.72,13.3 3.39,8.9 11.09,17.56l1.2 -37.94c0.51,36.25 15.31,121.96 29.29,145.01 4.25,-99.83 -11.56,-287.07 -57.65,-376.5 -10.41,-20.19 -16.06,-27.38 -41.54,-31.21 -23,-3.45 -48.12,-3.02 -70.85,0.32 22.15,107.45 42.45,223.55 66.04,330.57 12.1,54.88 22.65,110.25 28.24,168.42 5.01,52.08 1.77,143.22 20.5,183.67z"/>
   <path class="fil1" d="M1672.36 2240.58c124,2.18 119.47,22.89 199.97,66.53 -57.43,-19.7 -132.68,-61.61 -207.94,-48.52 24.83,45.16 54.97,51.6 110.58,75.76l-63.63 -4.26c2.51,44.94 9.07,55.62 49.49,80.01 89.37,53.94 282.32,91.8 330.77,12.57 -40.15,-20.53 -138.36,-15.66 -185.07,-40.29l125.42 -2.44c-14,-1.35 -31.64,-0.66 -45.29,-1.71 -27.56,-2.12 -29.13,-4.71 -40.18,-15.27 19.09,-10.24 32.61,-5.96 64.19,-10.07 -67.54,-4.66 -151.04,-111.79 -238.62,-126.66 -59.98,-10.19 -58.89,5.47 -99.7,14.33z"/>
   <path class="fil1" d="M328.52 1945.7c23.67,-23.97 7.68,-53.27 34.57,-88.74 3.11,60.39 -1.8,120.45 -0.45,181.26 1.34,60.33 9.03,115.57 13.94,174.98l11.36 -37.36c17.47,-211.64 22.45,-255.08 69.87,-473.16 9.71,-44.66 31.54,-119.52 34.25,-159.64 -84.95,7.36 -108.24,-18.06 -143.75,143.17 -12.07,54.73 -38.79,213.79 -19.78,259.48z"/>
   <path class="fil1" d="M5345 1946.92l9.72 -172.34c18.31,18.65 29.12,53.56 39.73,80.59 4.43,11.26 8.4,25.39 12.58,40.22l9.95 30.98c5.2,11.81 3.86,8.31 7.49,13.84 6.81,-114.02 0.92,-348.91 -49.67,-457.22 -19.67,-42.1 -74.92,-39.23 -133.72,-32.42 18.57,47.08 113.06,478.65 103.91,496.36z"/>
   <path class="fil1" d="M479.41 1986.59c14.16,-19.14 25.99,-83.78 30.53,-107.9 20.77,-12.3 -15.42,-0.4 4.15,0.08 17.54,0.44 -15.22,11.11 4.52,-0.08l11.12 -27.69c9.09,0.97 20.18,-50.02 21.36,-56.15l10.31 153.19c19.31,-42.61 32.27,-177.76 44.02,-236.47 14.85,-74.22 41.54,-156.24 53.39,-222.77 -113.34,-5.68 -111.49,-12 -135.98,66.77 -33.91,109.04 -65.96,328.46 -43.41,431.02z"/>
   <path class="fil1" d="M4078.93 2353.02l41.39 9.63c1.45,0.59 3.76,1.54 5.41,2.69 -25.62,12.04 -37.28,12.6 -73.39,13.49l125.74 2.02c-1.57,0.96 -4.05,0.35 -4.94,2.62 -0.87,2.26 -3.73,2.05 -4.95,2.57 -50.83,21.84 -141.08,19.75 -171.38,36.62 18.75,16.25 35.43,20.89 63.27,25.9 -10.3,8.37 -20.33,14.81 -38.7,8.8 92.34,15.15 127.39,15.35 213.98,-10.18 26.59,-7.83 69.66,-20.37 89.69,-34.93 17,-12.35 44.26,-50.02 49.57,-76.93l-58.94 -0.45c46.73,-24.17 89.54,-31.31 105.94,-83.72 -99.91,13.9 -128.82,28.06 -213.04,56.97 102.43,-80.91 143.81,-51.14 183.85,-75.21 -140.51,-49.43 -199.51,92.83 -313.5,120.09z"/>
   <path class="fil1" d="M2705.61 2189.07c22.34,17.82 45.48,97.23 114.35,123.1 55.54,20.88 187.43,24.23 202.46,-33.56 6.65,-25.52 7.8,-88.58 -4.92,-110.22 -43.31,-73.73 -254.96,77.48 -311.89,20.68z"/>
   <path class="fil1" d="M3080.35 2156.39c-16.55,30.89 -22.06,86.25 -9.17,125.19 18.33,55.33 186.16,56.86 242.4,8.09 19.04,-16.52 51.46,-62.87 64.04,-91.1 -49.36,27.59 -187.25,-67.89 -297.26,-42.18z"/>
   <path class="fil1" d="M3098.48 2670.46c-10.97,-7.62 -10.7,-7.71 -27.26,-5.71 -9.57,27.39 -5.41,79.12 0.78,108.22 7.35,34.55 35.62,35.34 76.05,33.62 75.77,-3.22 101.11,-32.62 141.3,-65.52l-5.1 69.75c23.46,-15.29 30.11,-34.36 39.51,-65.29 4.09,-13.45 9.75,-28.19 0.88,-42.02 -32.91,-51.28 -167.82,-62.67 -235.21,-59 2.57,20.32 2.8,4.36 9.06,25.97z"/>
   <path class="fil1" d="M2785.09 2683.55c-2.53,69.27 67.07,109.09 132.33,120.49 118.04,20.61 113.29,-42.78 104.53,-138.56 -25.03,-9.65 -10.98,-5.67 -30.69,1.26 0.06,-0.08 40.47,-24.74 -28.14,-25.17 -15.98,-0.1 -49.6,4.25 -66.3,6.78 -42.09,6.36 -79.17,14.86 -111.73,35.21z"/>
   <path class="fil1" d="M1823.94 2112.46c-14.65,88.73 21.13,91.54 56.92,131.61l0.79 -32.36c22.44,-0.34 7.14,-5.95 37.6,-6.91 32.45,-1.03 48.46,13.46 111.51,-17.59 48.05,-23.66 71.62,-49.79 100.74,-87.75 -61.21,-1.38 -266.36,-4.21 -307.56,13z"/>
   <path class="fil1" d="M2968.28 968.22l3.07 25.93c43.52,-2.98 97.97,-8.02 140.07,-0.08 13.43,63.93 -33.82,35.16 -75.84,36.14 -15.74,0.36 -42.67,7.68 -52.91,13.12 -26.96,14.32 -34.05,44.71 -0.18,46.05 26.38,1.06 23.11,-8.94 52.97,-10.35 33.5,-1.58 40.11,10.02 79.32,8.36 8.65,-13.03 3.43,-19.31 8.88,-33.2 8.3,-21.19 50.84,-38.13 46.9,-96.93 -6.33,-94.64 -15.34,-69.09 40.3,-131.52 -23.67,-18.99 -50.17,-36.67 -77.85,-48.23 4.78,23.59 5.45,14.46 1.34,37.97 -0.45,2.57 -4.23,14.96 -4.87,16.55l-11.36 20.73c-12.27,-30.11 -18.32,-30.07 -35.83,-53.17l21.47 62c12.07,21.77 2.54,-11.8 12.56,22.01 -17.47,48.45 -32.2,20.84 -46.96,60.77 33.78,9.88 47.96,15.65 64.23,40.3 -48.54,-16.25 -112.56,-27.8 -165.31,-16.46z"/>
   <path class="fil1" d="M4195.71 2198.3l-2.7 41.73c48.92,-21.61 87.42,-55.12 65.19,-131.47 -100.03,-17.79 -218.56,0.31 -310.59,-14.94 22.75,19.36 35.23,48.05 91.42,81.32 51.59,30.55 87.83,34.62 156.68,23.35z"/>
   <path class="fil1" d="M2968.28 968.22c20.84,-21.42 19.68,-17.83 49.99,-31.54 -13.87,-38.08 -43.46,-4.69 -45.49,-76.09 55.53,9.62 51.13,48.96 113.18,6.8 2.92,-35.1 -24.18,-96.01 -36.37,-132.06l-34.07 54.99c-37.6,60.86 -0.7,39.55 -33.41,60.78l-6.25 -38.82 -18.1 23.4c-7.75,-22.1 -2.37,-40.08 3.89,-65.15 -22.09,7.43 -72.12,37.68 -84.63,53.37 113.75,131.74 -13.24,110.1 49.05,175.79 1.56,1.65 13.78,11.86 14.36,12.14 18.81,9.21 12.65,3.73 40.01,2.08 -13.42,-47.49 -6.44,-3.18 -23.64,-37.42l11.5 -8.26z"/>
   <path class="fil1" d="M4639.88 2150.69c11.07,18.41 30,31.53 48.11,45.45 39.03,29.99 130.7,107.64 171.51,114.15l26.86 -32.72c-16.72,-34.43 -45.86,-45.59 -65.76,-73.35 19.88,14.58 67.14,52.4 89.59,59.31 -16.14,-25.65 -90.5,-81.4 -124.29,-105.57 -52.05,-37.24 -91.25,-71.2 -146.03,-7.26z"/>
   <path class="fil1" d="M1182.44 2264.31c32.09,-19.01 55.48,-39.02 86.41,-59.33 -24.66,24.64 -56.01,45.47 -69.73,78.39 18.69,23.88 29.14,37.37 66.62,15.29 43.12,-25.42 148.21,-114.14 176.63,-147.96 -1.01,-1.12 -2.79,-4.19 -3.31,-3.08 0,0.02 -39.01,-32.21 -68.59,-30.64 -36.77,1.97 -169.51,115.39 -188.04,147.33z"/>
   <path class="fil1" d="M2191.26 2505.33c21.21,-12.53 17.89,-16.32 29.34,-34.2l183.02 -3.64c-8.06,-35.11 -105.53,-163.58 -111.45,-168.85 -23.63,39.38 -30.4,58.87 -60.14,90.33 -35.75,37.81 -23.59,40.14 -40.78,116.36z"/>
   <path class="fil1" d="M3682.95 2469.01c241.49,-9.01 159.27,10.32 213.81,37.07 -20.63,-62.14 5,-66.15 -39.01,-109.97 -32.43,-32.28 -39.1,-52.57 -66.3,-92.95 -26.88,30.31 -99.68,124.8 -108.5,165.85z"/>
   <path class="fil1" d="M2139.48 2761.77c227.54,5.16 173.69,-22.11 241.98,-31.36 -12.32,21.63 -11.09,11.72 -24.53,30.45l65.57 -0.22 2.43 -81.83 -215.99 0.79c-18.87,35.15 -46.03,53.24 -69.47,82.17z"/>
   <path class="fil1" d="M3674.03 2764.51l48.41 0.5 -15.72 -38.87c76.84,46.05 140.6,31.3 239.59,38.65 -20.42,-48.08 -26.73,-16.76 -66.5,-85.45l-209.94 -1.48 4.15 86.65z"/>
   <path class="fil1" d="M1306.18 2342.18c11.92,10.44 20.94,16.69 37.33,28.24 73.09,-19.12 131.47,-91.76 186.52,-139l22.2 -19.51c0.91,-0.87 2.73,-2.47 3.92,-3.88l-66.7 -23.8c-32.46,15.68 -70.65,51.95 -97.57,74.51 -36.13,30.27 -77.41,57.33 -85.71,83.45z"/>
   <path class="fil1" d="M4535.51 2217.04c106.04,73.11 183.83,196.29 241.37,119.4 -21.46,-33.85 -53.59,-54.57 -79.94,-76.41 -13.46,-11.16 -16.52,-17.17 -30.54,-28.95 -75.71,-63.55 -71.29,-43.87 -100.77,-33.46 -19.46,6.87 -9.83,-6.48 -30.12,19.42z"/>
   <path class="fil1" d="M4474.08 2270.11c19,36.48 55.22,58.9 80.51,106.04 9.82,18.3 22.37,43.45 45.99,42.88 13.86,-0.34 48.62,-24.65 58.86,-36.15 -26.71,-26.68 -44.83,-60.7 -74.43,-90.44 -24.47,-24.58 -74.2,-69 -110.94,-22.33z"/>
   <path class="fil1" d="M1430.79 2382.88c5.72,7.31 2.79,5.18 13.36,13.14l51.95 24.62c20.54,-17.94 59.88,-82.4 91.04,-119.82 25.08,-30.11 9.43,-14.76 31.48,-20.98 -4.84,-9.9 -4.16,-14.57 -16.95,-22.5l-31.56 -4.5c-30.96,-0.43 -28.8,2.36 -55.81,28.66 -30.98,30.17 -55.52,71.71 -83.51,101.38z"/>
   <path class="fil1" d="M5949.47 2033.05l16.68 -14.38c19.8,-20.79 25.16,-18.66 29.87,17.76l8.24 -32.85 16.92 30.57 8.13 -19.33c17.16,-16.54 5.29,15.55 15.29,-22.12l5.29 42.98c7.39,-40.18 14.98,-51.16 4.02,-91.1 -31.02,-9.55 -74.98,-7.59 -112.09,-4.69l7.64 93.17z"/>
   <path class="fil1" d="M109.95 2031.27l-16.68 -14.41c-19.8,-20.83 -25.16,-18.72 -29.87,17.7l-8.24 -32.88 -16.92 30.54 -8.13 -19.35c-17.16,-16.58 -5.29,15.54 -15.29,-22.15l-5.29 42.97c-7.39,-40.2 -14.98,-51.2 -4.02,-91.11 31.02,-9.49 74.98,-7.43 112.09,-4.45l-7.64 93.15z"/>
  </g>
 </g>
</svg>
